HIERARCHY
ROOT joint_Root
{
	OFFSET 0.0 0.0 0.0
	CHANNELS 6 Xposition Yposition Zposition Zrotation Xrotation Yrotation 
	JOINT Hips
	{
		OFFSET -17.1583 93.1646 452.98
		CHANNELS 6 Xposition Yposition Zposition Zrotation Xrotation Yrotation 
		JOINT Spine
		{
			OFFSET 15.7357 0.0 0.0
			CHANNELS 6 Xposition Yposition Zposition Zrotation Xrotation Yrotation 
			JOINT Chest
			{
				OFFSET 8.98455 -0.406207 0.0
				CHANNELS 6 Xposition Yposition Zposition Zrotation Xrotation Yrotation 
				JOINT Neck
				{
					OFFSET 16.3773 0.0 0.0
					CHANNELS 6 Xposition Yposition Zposition Zrotation Xrotation Yrotation 
					JOINT Head
					{
						OFFSET 6.45672 0.0 0.0
						CHANNELS 6 Xposition Yposition Zposition Zrotation Xrotation Yrotation 
						End Site
						{
							OFFSET 0.0 0.0 0.0
						}
					}
				}
				JOINT Shoulder_L
				{
					OFFSET 12.9942 -0.242716 4.98039
					CHANNELS 6 Xposition Yposition Zposition Zrotation Xrotation Yrotation 
					JOINT UpperArm_L
					{
						OFFSET 5.34809 0.0 0.0
						CHANNELS 6 Xposition Yposition Zposition Zrotation Xrotation Yrotation 
						JOINT LowerArm_L
						{
							OFFSET 24.3286 1.87007e-05 0.0
							CHANNELS 6 Xposition Yposition Zposition Zrotation Xrotation Yrotation 
							JOINT Hand_L
							{
								OFFSET 22.2916 0.0 0.0
								CHANNELS 6 Xposition Yposition Zposition Zrotation Xrotation Yrotation 
								End Site
								{
									OFFSET 0.0 0.0 0.0
								}
							}
						}
					}
				}
				JOINT Shoulder_R
				{
					OFFSET 12.9945 -0.242716 -4.98039
					CHANNELS 6 Xposition Yposition Zposition Zrotation Xrotation Yrotation 
					JOINT UpperArm_R
					{
						OFFSET -5.34813 0.0 0.0
						CHANNELS 6 Xposition Yposition Zposition Zrotation Xrotation Yrotation 
						JOINT LowerArm_R
						{
							OFFSET -24.3289 0.000322201 0.0
							CHANNELS 6 Xposition Yposition Zposition Zrotation Xrotation Yrotation 
							JOINT Hand_R
							{
								OFFSET -22.2915 -0.000108084 0.0
								CHANNELS 6 Xposition Yposition Zposition Zrotation Xrotation Yrotation 
								End Site
								{
									OFFSET 0.0 0.0 0.0
								}
							}
						}
					}
				}
			}
		}
		JOINT UpperLeg_L
		{
			OFFSET -2.19248 -6.46944 0.0
			CHANNELS 6 Xposition Yposition Zposition Zrotation Xrotation Yrotation 
			JOINT LowerLeg_L
			{
				OFFSET 39.0811 0.0 -1.23785e-05
				CHANNELS 6 Xposition Yposition Zposition Zrotation Xrotation Yrotation 
				JOINT Foot_L
				{
					OFFSET 40.9854 0.0 -1.26872e-05
					CHANNELS 6 Xposition Yposition Zposition Zrotation Xrotation Yrotation 
					JOINT Toes_L
					{
						OFFSET 11.7543 0.0 0.0
						CHANNELS 6 Xposition Yposition Zposition Zrotation Xrotation Yrotation 
						End Site
						{
							OFFSET 0.0 0.0 0.0
						}
					}
				}
			}
		}
		JOINT UpperLeg_R
		{
			OFFSET -2.19251 6.46944 0.0
			CHANNELS 6 Xposition Yposition Zposition Zrotation Xrotation Yrotation 
			JOINT LowerLeg_R
			{
				OFFSET -39.0811 -0.00228153 -0.0401928
				CHANNELS 6 Xposition Yposition Zposition Zrotation Xrotation Yrotation 
				JOINT Foot_R
				{
					OFFSET -40.9854 0.0 0.0
					CHANNELS 6 Xposition Yposition Zposition Zrotation Xrotation Yrotation 
					JOINT Toes_R
					{
						OFFSET -11.7543 0.0 0.0
						CHANNELS 6 Xposition Yposition Zposition Zrotation Xrotation Yrotation 
						End Site
						{
							OFFSET 0.0 0.0 0.0
						}
					}
				}
			}
		}
	}
}
MOTION
Frames:	4
Frame Time:	0.0333333
0.000000 0.000000 0.000000 0.000000 0.000000 -0.000000 126.723000 91.743800 154.455000 99.485100 -65.108000 10.369100 15.735700 0.000005 -0.000001 97.658500 85.561400 -98.038200 8.984550 -0.406207 -0.000000 1.036400 1.204860 -0.769726 16.377300 -0.000001 -0.000001 4.594230 -6.324440 1.341940 6.456720 -0.000001 -0.000000 -7.203080 -10.985500 -1.715140 12.994200 -0.242716 4.980390 -93.472300 9.421520 -69.661900 5.348090 -0.000007 -0.000001 -69.389800 0.669746 4.106020 24.328600 0.000019 0.000005 7.052190 23.475100 -17.251800 22.291600 -0.000001 0.000005 35.105300 4.805730 11.208700 12.994500 -0.242716 -4.980390 88.490600 3.978620 -69.204700 -5.348130 -0.000001 -0.000004 -70.780300 8.791310 -14.976600 -24.328900 0.000322 -0.000009 -5.981040 -8.749280 -34.553100 -22.291500 -0.000108 -0.000004 41.010400 5.574120 -9.900810 -2.192480 -6.469440 -0.000000 -176.418000 -4.784080 -25.473800 39.081100 -0.000007 -0.000012 -0.027284 0.015667 60.142900 40.985400 -0.000006 -0.000013 -2.690850 -9.842630 -64.884800 11.754300 -0.000000 0.000003 0.002363 0.102528 -12.419000 -2.192510 6.469440 -0.000001 -174.059000 5.305150 -174.678000 -39.081100 -0.002282 -0.040193 0.009895 -0.029749 12.436300 -40.985400 0.000008 0.000006 8.256600 12.004300 -69.512900 -11.754300 -0.000006 -0.000006 -0.003947 0.218560 -7.703400
0.000000 0.000000 0.000000 0.000000 0.000000 -0.000000 125.122000 91.994700 156.472000 103.119000 -69.905500 13.121000 15.735700 0.000005 -0.000001 102.040000 85.550200 -102.640000 8.984550 -0.406207 -0.000000 0.948705 1.891370 -1.216160 16.377300 -0.000001 -0.000001 4.144290 -4.865810 0.637084 6.456720 -0.000001 -0.000000 -7.405950 -9.315720 -1.699600 12.994200 -0.242716 4.980390 -93.456000 9.184860 -69.275900 5.348090 -0.000007 -0.000001 -69.597300 -1.759590 7.369240 24.328600 0.000019 0.000005 6.096300 21.454200 -16.277800 22.291600 -0.000001 0.000005 35.245600 4.780670 11.679600 12.994500 -0.242716 -4.980390 88.487200 4.143200 -69.921500 -5.348130 -0.000001 -0.000004 -71.413000 9.521250 -17.958200 -24.328900 0.000322 -0.000009 -6.508990 -8.767030 -36.812000 -22.291500 -0.000108 -0.000004 41.781800 5.579660 -10.195000 -2.192480 -6.469440 -0.000000 -177.574000 -5.139160 -25.820700 39.081100 -0.000007 -0.000012 0.000532 -0.000445 49.864700 40.985400 -0.000006 -0.000013 -3.195710 -8.743120 -65.200300 11.754300 -0.000000 0.000003 0.002405 0.099085 -12.558600 -2.192510 6.469440 -0.000001 -175.601000 1.167910 -173.601000 -39.081100 -0.002282 -0.040193 0.006808 -0.016070 12.195600 -40.985400 0.000008 0.000006 7.249300 12.961600 -69.788800 -11.754300 -0.000006 -0.000006 -0.005380 0.232760 -7.124800
0.000000 0.000000 0.000000 0.000000 0.000000 -0.000000 123.307000 92.139700 158.384000 105.605000 -73.490900 15.181500 15.735700 0.000005 -0.000001 104.179000 85.432300 -104.795000 8.984550 -0.406207 -0.000000 1.104680 2.272580 -1.252360 16.377300 -0.000001 -0.000001 3.644010 -3.807110 -0.028129 6.456720 -0.000001 -0.000000 -7.661920 -7.976450 -1.608300 12.994200 -0.242716 4.980390 -93.373000 8.877400 -69.097500 5.348090 -0.000007 -0.000001 -70.029600 -3.372250 9.594110 24.328600 0.000019 0.000005 5.398250 20.545600 -15.070000 22.291600 -0.000001 0.000005 35.584800 4.761800 12.030700 12.994500 -0.242716 -4.980390 88.521700 4.172690 -70.471700 -5.348130 -0.000001 -0.000004 -72.247800 10.062600 -19.859500 -24.328900 0.000322 -0.000009 -7.499060 -9.272380 -39.242700 -22.291500 -0.000108 -0.000004 42.770900 5.580520 -10.238900 -2.192480 -6.469440 -0.000000 -177.884000 -4.781730 -24.709900 39.081100 -0.000007 -0.000012 0.013550 -0.017780 37.306400 40.985400 -0.000006 -0.000013 -4.374920 -5.696580 -64.843900 11.754300 -0.000000 0.000003 0.002333 0.104663 -12.332500 -2.192510 6.469440 -0.000001 -176.575000 -1.125330 -172.708000 -39.081100 -0.002282 -0.040193 0.006209 -0.012843 12.616600 -40.985400 0.000008 0.000006 6.932800 13.871400 -69.878600 -11.754300 -0.000006 -0.000006 -0.002436 0.201717 -8.388930
0.000000 0.000000 0.000000 0.000000 0.000000 -0.000000 121.186000 92.056100 160.235000 105.838000 -76.090900 15.259800 15.735700 0.000005 -0.000001 106.074000 85.313800 -106.487000 8.984550 -0.406207 -0.000000 1.251130 2.617290 -0.853753 16.377300 -0.000001 -0.000001 3.251880 -3.152750 -0.672917 6.456720 -0.000001 -0.000000 -7.792990 -7.130450 -1.533070 12.994200 -0.242716 4.980390 -93.239000 8.501840 -69.053900 5.348090 -0.000007 -0.000001 -70.677200 -3.810210 10.852500 24.328600 0.000019 0.000005 5.026190 21.018100 -13.778000 22.291600 -0.000001 0.000005 35.730000 4.750480 12.239500 12.994500 -0.242716 -4.980390 88.577800 4.066230 -70.704300 -5.348130 -0.000001 -0.000004 -72.793000 10.596300 -20.591500 -24.328900 0.000322 -0.000009 -8.015320 -9.170970 -41.456700 -22.291500 -0.000108 -0.000004 43.562400 5.583120 -10.380400 -2.192480 -6.469440 -0.000000 -177.795000 -4.767900 -22.837400 39.081100 -0.000007 -0.000012 0.010405 -0.023212 24.145100 40.985400 -0.000006 -0.000013 -5.414860 -1.534100 -64.449300 11.754300 -0.000000 0.000003 0.002389 0.100501 -12.501200 -2.192510 6.469440 -0.000001 -177.110000 -1.458850 -172.043000 -39.081100 -0.002282 -0.040193 0.006017 -0.010769 14.001200 -40.985400 0.000008 0.000006 7.108360 15.164000 -70.045000 -11.754300 -0.000006 -0.000006 -0.000134 0.169890 -9.682540
